<?xml version="1.0" encoding="UTF-8"?><svg viewBox="0 0 339 312" xmlns="http://www.w3.org/2000/svg"><g fill="none" fill-rule="evenodd"><path d="M120.796 1.236c27.839-4.005 63.35 26.988 103.485 42.076 40.135 15.089 84.9 14.398 103.35 34.621 18.45 20.223 10.875 61.549 1.987 100.193-8.889 38.643-19.56 74.884-43.526 90.505-23.966 15.62-61.417 10.86-105.918 19.992-44.5 9.132-96.009 32.461-130.459 19.291-34.45-13.17-51.79-62.333-48.333-105.837 3.457-43.504 27.697-81.144 49.707-119.482C73.1 44.257 93.04 5.34 120.796 1.236z" fill-opacity=".1" fill="#4951F5" fill-rule="nonzero"/><g transform="translate(44 66.67)"><path d="M45.78 2.26v32.5M159.08 34.76H16.07M83.86 34.76v32.5M209.45 84.38v28.78M238.23 114.38v33.43" stroke="#DEDFE0" stroke-width="3" stroke-linecap="round" stroke-linejoin="round"/><rect fill="#D0D0D0" fill-rule="nonzero" x="1.58" y="11.82" width="238.93" height="158.31" rx="5"/><path d="M230.87 172.95H10.36C4.64 172.944.006 168.31 0 162.59V22.69c.006-5.72 4.64-10.354 10.36-10.36h220.51c5.72.006 10.354 4.64 10.36 10.36v139.9c-.006 5.72-4.64 10.354-10.36 10.36zM10.36 14.64a8.06 8.06 0 00-8.06 8v139.9a8.07 8.07 0 008.06 8.06h220.51a8.07 8.07 0 008.06-8.06V22.69a8.07 8.07 0 00-8.06-8l-220.51-.05z" fill="#6B6B6B" fill-rule="nonzero"/><rect fill="#DAE1F2" fill-rule="nonzero" x="13.14" y="1.15" width="238.93" height="158.31" rx="12.48"/><path d="M242.86 160.61H22.34c-5.718-.006-10.35-4.642-10.35-10.36V10.35C11.996 4.636 16.626.006 22.34 0h220.52c5.715.006 10.349 4.635 10.36 10.35v139.9c-.006 5.72-4.64 10.354-10.36 10.36zM22.34 2.3a8.06 8.06 0 00-8.05 8.05v139.9a8.06 8.06 0 008.05 8.06h220.52a8.06 8.06 0 008.05-8.06V10.35a8.06 8.06 0 00-8.05-8.05H22.34z" fill="#455A7F" fill-rule="nonzero"/><path d="M252.06 22.28v125.24c-.016 6.882-5.588 12.458-12.47 12.48h-214c-6.886-.016-12.464-5.594-12.48-12.48V22.28" fill="#455A7F" fill-rule="nonzero"/><circle fill="#455A7F" fill-rule="nonzero" cx="215.33" cy="11.35" r="4.47"/><circle fill="#455A7F" fill-rule="nonzero" cx="28.51" cy="11.35" r="4.47"/><circle fill="#455A7F" fill-rule="nonzero" cx="232.42" cy="11.35" r="4.47"/><path d="M36.2 42.16h34.6" stroke="#FFF" stroke-width="4" stroke-linecap="round" stroke-linejoin="round"/><path d="M83.08 42.16h34.61" stroke="#74BF44" stroke-width="4" stroke-linecap="round" stroke-linejoin="round"/><path d="M129.99 42.16h17.3" stroke="#FFF" stroke-width="4" stroke-linecap="round" stroke-linejoin="round"/><path d="M36.2 57.23h25.3" stroke="#67C7CC" stroke-width="4" stroke-linecap="round" stroke-linejoin="round"/><path d="M72.29 57.23H93.5" stroke="#EC2831" stroke-width="4" stroke-linecap="round" stroke-linejoin="round"/><path d="M104.32 57.23h17.3" stroke="#FFF" stroke-width="4" stroke-linecap="round" stroke-linejoin="round"/><path d="M36.2 72.3h34.6" stroke="#74BF44" stroke-width="4" stroke-linecap="round" stroke-linejoin="round"/><path d="M83.08 72.3h59.16" stroke="#67C7CC" stroke-width="4" stroke-linecap="round" stroke-linejoin="round"/><path d="M36.2 87.37h27.1M74.71 87.37h43.53" stroke="#ECAA26" stroke-width="4" stroke-linecap="round" stroke-linejoin="round"/><path d="M131.1 87.37h17.3" stroke="#FFF" stroke-width="4" stroke-linecap="round" stroke-linejoin="round"/><path d="M36.2 102.44h34.6" stroke="#67C7CC" stroke-width="4" stroke-linecap="round" stroke-linejoin="round"/><path d="M83.08 102.44h23.82" stroke="#74BF44" stroke-width="4" stroke-linecap="round" stroke-linejoin="round"/><path d="M36.2 117.51h25.3" stroke="#FFF" stroke-width="4" stroke-linecap="round" stroke-linejoin="round"/><path d="M72.32 117.51h32" stroke="#67C7CC" stroke-width="4" stroke-linecap="round" stroke-linejoin="round"/><path d="M36.2 132.58h12.65" stroke="#EC2831" stroke-width="4" stroke-linecap="round" stroke-linejoin="round"/><path d="M58.65 132.58h34.61" stroke="#74BF44" stroke-width="4" stroke-linecap="round" stroke-linejoin="round"/><path d="M104.51 132.58h17.3" stroke="#FFF" stroke-width="4" stroke-linecap="round" stroke-linejoin="round"/><path d="M114.8 117.51h32" stroke="#67C7CC" stroke-width="4" stroke-linecap="round" stroke-linejoin="round"/><path d="M204.652 124.942l-.197.112-4.31 2.101a.77.77 0 00-.41 1.192l3.06 6.257c.037.058.078.115.122.168l-1.764.853-.09-.169c-1.023-2.097-2.058-4.188-3.043-6.336a.85.85 0 00-1.21-.416c-1.418.707-2.86 1.394-4.284 2.089a1.7 1.7 0 00-.21.15l-.353-16.42 12.689 10.419z" fill="#FFF" fill-rule="nonzero"/><rect stroke="#455A7F" stroke-width="3" fill="#FFF" fill-rule="nonzero" stroke-linecap="round" stroke-linejoin="round" x="183.58" y="30.82" width="83.61" height="56.08" rx="7.69"/><path stroke="#455A7F" stroke-width="4" stroke-linecap="round" stroke-linejoin="round" d="M209.77 47.4l-10.88 10.88 11.88 11.55M240 47.9l10.89 10.88L239 70.33M219.65 70.33l11.04-22.43"/><rect fill="#6B6B6B" fill-rule="nonzero" opacity=".19" x="189.38" y="36.95" width="83.61" height="56.08" rx="7.69"/></g></g></svg>